<svg width="239" height="60" viewBox="0 0 239 60" fill="none" xmlns="http://www.w3.org/2000/svg">
<g clip-path="url(#clip0_1_3)">
<mask id="mask0_1_3" style="mask-type:luminance" maskUnits="userSpaceOnUse" x="0" y="0" width="55" height="60">
<path d="M54.1936 0H0V60H54.1936V0Z" fill="white"/>
</mask>
<g mask="url(#mask0_1_3)">
<path d="M50.0248 12.105L38.1244 5.23682L11.6359 22.4903L18.1613 28.0645C18.1723 28.0534 36.3216 14.9364 36.3216 14.9364C36.5212 14.7972 36.7605 14.7264 37.0036 14.7344C37.2468 14.7423 37.4809 14.8287 37.6709 14.9806C39.0932 16.143 53.0995 27.5922 54.0728 28.3963V19.1059C54.0705 17.6867 53.6954 16.2929 52.985 15.0642C52.2745 13.8355 51.2538 12.815 50.0248 12.105ZM18.0838 42.011L25.0184 36.835C20.433 32.9187 0.719778 16.0645 0.719778 16.0645C-0.277826 18.0221 0.259686 24.3152 0.133603 26.494C0.835907 27.0989 16.8064 40.9094 18.0838 42.011Z" fill="#8A47CB"/>
<path d="M34.8615 29.48L28.3804 23.4081L19.8864 29.5353L26.832 35.4745L34.8615 29.48ZM9.87715 20.986L35.9896 3.99798L31.1454 1.19983C29.9171 0.48899 28.5235 0.113765 27.1044 0.111824C25.6854 0.109883 24.2907 0.481293 23.0606 1.18877L4.1813 12.0938C3.28048 12.6121 2.48812 13.2993 1.84766 14.1178C2.92157 15.0468 8.6683 19.9585 9.87715 20.986ZM44.1297 38.1731L18.0725 55.9242C20.4571 57.1641 24.2672 60.116 27.0864 59.8837C28.5064 59.8873 29.9024 59.5174 31.1343 58.8109L50.0136 47.9058C50.9143 47.3875 51.7067 46.7003 52.3472 45.8819C51.3043 44.9307 45.2998 39.2636 44.1297 38.1731Z" fill="#8A47CB"/>
<path d="M36.4991 31.0175L27.4521 37.7751L18.6926 44.3225C18.5001 44.4641 18.268 44.5415 18.029 44.5437C17.764 44.541 17.5087 44.4428 17.3101 44.2672C15.9553 43.0949 0.971342 30.1559 0.134107 29.4138L0.123047 40.894C0.125299 42.3132 0.500422 43.707 1.21085 44.9357C1.92127 46.1644 2.94206 47.1849 4.17097 47.8949L15.9608 54.7078L42.4825 36.6248L36.4991 31.0175ZM36.9304 17.2368L30.2171 22.0811C34.8268 26.4121 53.476 43.9244 53.476 43.9244C53.8602 42.9639 54.0591 41.9394 54.0622 40.905V31.2497C53.2349 30.5717 38.2687 18.3284 36.9304 17.2368Z" fill="#8A47CB"/>
</g>
</g>
<path d="M86.3711 43H69.1445V16.6328H74.5586V38.2715H86.3711V43ZM89.2539 43V16.6328H106.27V21.3613H94.668V27.3555H105.549V32.1016H94.668V38.2715H106.445V43H89.2539ZM114.514 43H108.836L119.348 16.6328H125.061L135.555 43H129.877L127.715 37.3398H116.676L114.514 43ZM118.451 32.5938H125.957L122.195 22.8203L118.451 32.5938ZM160.094 43H154.1L148.562 33.4727H143.535V43H138.121V16.6328H148.809C150.93 16.6328 152.746 16.9668 154.258 17.6348C155.77 18.3027 156.924 19.2695 157.721 20.5352C158.529 21.7891 158.934 23.2949 158.934 25.0527C158.934 26.8574 158.506 28.3984 157.65 29.6758C156.807 30.9414 155.6 31.8906 154.029 32.5234L160.094 43ZM143.535 29.166H148.404C150.01 29.166 151.24 28.832 152.096 28.1641C152.963 27.4844 153.396 26.5176 153.396 25.2637C153.396 24.0098 152.963 23.0488 152.096 22.3809C151.24 21.7012 150.01 21.3613 148.404 21.3613H143.535V29.166ZM186.936 43H180.713L168.391 25V43H162.977V16.6328H169.199L181.521 34.668V16.6328H186.936V43ZM191.242 43V16.6328H196.656V43H191.242ZM226.1 43H219.297L212.512 33.4727L205.709 43H199.293L209.383 29.4648L200.084 16.6328H206.887L212.881 25.0703L218.734 16.6328H225.361L216.027 29.3242L226.1 43Z" fill="#FBFBFB"/>
<defs>
<clipPath id="clip0_1_3">
<rect width="55" height="60" fill="white"/>
</clipPath>
</defs>
</svg>
