<svg width="51" height="50" viewBox="0 0 51 50" fill="none" xmlns="http://www.w3.org/2000/svg">
<g clip-path="url(#clip0_616_2)">
<path opacity="0.6" d="M37.5408 12.9586C36.9313 12.3491 35.9402 12.3491 35.3307 12.9586L25.9549 22.3344C25.5062 22.7831 25.379 23.4528 25.6201 24.0354C25.8611 24.6181 26.4304 24.9998 27.0666 24.9998H40.608C41.4719 24.9998 42.1684 24.2966 42.1684 23.4394C42.1684 22.5822 41.4652 21.879 40.608 21.879H35.9201C35.9201 20.4927 35.4178 19.1801 34.5472 18.1688L37.5408 15.1686C38.1502 14.5525 38.1502 13.568 37.5408 12.9586ZM32.7859 21.8723H30.8303L32.3171 20.3856C32.6184 20.8142 32.7859 21.3298 32.7859 21.8723Z" fill="#0063F4"/>
<path opacity="0.6" d="M44.2484 4.16553H23.4207C22.2688 4.16553 21.3379 5.10311 21.3379 6.24831C21.3379 7.3935 22.2755 8.33108 23.4207 8.33108H44.2551C45.407 8.33108 46.3379 9.26867 46.3379 10.4139V27.0761C46.3379 28.228 45.4003 29.1589 44.2551 29.1589H27.5862C26.4343 29.1589 25.5034 30.0965 25.5034 31.2416C25.5034 32.3868 26.4343 33.3244 27.5862 33.3244H44.2484C47.6974 33.3244 50.4968 30.5184 50.4968 27.0694V10.4139C50.5035 6.96489 47.6974 4.16553 44.2484 4.16553Z" fill="#0063F4"/>
<path d="M10.9104 12.4967C14.3613 12.4967 17.1588 9.69919 17.1588 6.24833C17.1588 2.79747 14.3613 0 10.9104 0C7.45958 0 4.66211 2.79747 4.66211 6.24833C4.66211 9.69919 7.45958 12.4967 10.9104 12.4967Z" fill="#0063F4"/>
<path d="M13.519 14.5796H8.30874C4.00924 14.5796 0.5 18.0822 0.5 22.3951V31.0008C0.5 32.3937 1.27016 33.6394 2.51581 34.2622L4.37758 35.1931C4.5584 35.2802 4.66555 35.461 4.66555 35.6619V46.3503C4.66555 48.3595 6.29963 50.0002 8.31544 50.0002H13.5257C15.5348 50.0002 17.1689 48.3662 17.1756 46.3503V35.6619C17.1756 35.4677 17.2828 35.2869 17.4636 35.1931L19.3254 34.2622C20.571 33.6394 21.3412 32.3937 21.3412 31.0008V22.3951C21.3345 18.0822 17.8252 14.5796 13.519 14.5796Z" fill="#0063F4"/>
</g>
<defs>
<clipPath id="clip0_616_2">
<rect width="50" height="50" fill="white" transform="translate(0.5)"/>
</clipPath>
</defs>
</svg>
