<svg width="50" height="50" viewBox="0 0 50 50" fill="none" xmlns="http://www.w3.org/2000/svg">
<g clip-path="url(#clip0_617_10)">
<path opacity="0.6" d="M48.0433 35.0226L35.425 29.294C35.0426 29.1233 34.5879 29.1233 34.2055 29.294L21.5872 35.0226C21.0394 35.268 20.6777 35.8333 20.6777 36.4521C20.6777 37.0708 21.0394 37.6362 21.5872 37.8816L34.2055 43.6102C34.4019 43.6955 34.6086 43.7382 34.8152 43.7382C35.0219 43.7382 35.2286 43.6955 35.425 43.6102L48.0433 37.8922C48.591 37.6469 48.9527 37.0815 48.9527 36.4628C48.9527 35.844 48.591 35.2786 48.0433 35.0226Z" fill="#0063F4"/>
<path opacity="0.6" d="M34.8051 46.8744C34.1747 46.8744 33.565 46.7463 32.9863 46.4797L24.7188 42.7246V44.1541C24.7188 45.4235 25.3595 46.6183 26.3929 47.2691C29.3072 49.0933 32.0561 50 34.8051 50C37.554 50 40.3133 49.0826 43.2174 47.2691C44.2508 46.6183 44.8916 45.4235 44.8916 44.1541V42.7246L36.6343 46.4797C36.0555 46.7463 35.4355 46.8744 34.8051 46.8744Z" fill="#0063F4"/>
<path d="M18.6651 20.8342C24.225 20.8342 28.7515 16.1617 28.7515 10.4118C28.7515 4.66183 24.225 0 18.6651 0C13.1052 0 8.56836 4.6725 8.56836 10.4224C8.56836 16.1724 13.0948 20.8342 18.6651 20.8342Z" fill="#0063F4"/>
<path d="M16.6424 36.4617C16.6424 34.1894 17.9342 32.1305 19.9494 31.2131L31.617 25.9005C30.4492 25.3138 29.1367 25.0044 27.7416 25.0044H9.58397C4.5821 25.0044 0.5 29.2076 0.5 34.3814V42.713C0.5 43.2891 0.944381 43.7584 1.51277 43.7584H20.6832V42.0303L19.9597 41.6996C17.9342 40.7715 16.6424 38.7126 16.6424 36.4617Z" fill="#0063F4"/>
</g>
<defs>
<clipPath id="clip0_617_10">
<rect width="49" height="50" fill="white" transform="translate(0.5)"/>
</clipPath>
</defs>
</svg>
