<svg width="38" height="48" viewBox="0 0 38 48" fill="none" xmlns="http://www.w3.org/2000/svg">
<g clip-path="url(#clip0_617_15)">
<mask id="mask0_617_15" style="mask-type:luminance" maskUnits="userSpaceOnUse" x="0" y="0" width="38" height="48">
<path d="M37.0625 0H0.5V48H37.0625V0Z" fill="white"/>
</mask>
<g mask="url(#mask0_617_15)">
<path d="M10.3767 10.3125H27.1852C29.6908 10.3125 30.9457 7.28306 29.1739 5.51128L27.1145 3.45187C24.8886 1.22588 21.929 0 18.7809 0C15.6329 0 12.6734 1.22588 10.4474 3.45187L8.388 5.51128C6.61622 7.28306 7.87106 10.3125 10.3767 10.3125ZM22.8044 13.5895C23.0207 13.4453 23.2295 13.2902 23.4302 13.125H14.1318C14.3325 13.2902 14.5413 13.4453 14.7576 13.5895C16.0202 14.4332 17.6371 15 18.7809 15C19.9248 15 21.5417 14.4332 22.8044 13.5895Z" fill="#0063F4"/>
<path d="M26.75 17.3438V13.6289C25.0492 16.1391 21.3892 17.8126 18.7812 17.8126C16.1733 17.8126 12.5133 16.1391 10.8125 13.6289V17.3438C10.8125 21.7378 14.3873 25.3126 18.7812 25.3126C23.1752 25.3126 26.75 21.7378 26.75 17.3438ZM31.4375 44.0626V48.0001H35.6562C36.4329 48.0001 37.0625 47.3704 37.0625 46.5938V44.0626H31.4375ZM0.5 46.5938C0.5 47.3704 1.12963 48.0001 1.90625 48.0001H6.125V44.0626H0.5V46.5938Z" fill="#0063F4"/>
<path d="M24.8748 29.0718C24.8704 31.9437 22.8687 34.3544 20.1876 34.9904V41.7185C20.1876 42.4951 19.558 43.1248 18.7814 43.1248C18.0047 43.1248 17.3751 42.4951 17.3751 41.7185V34.9904C14.694 34.3544 12.6923 31.9437 12.6879 29.0718C6.08114 29.3136 0.751641 34.643 0.509766 41.2498H7.53126C8.30789 41.2498 8.93751 41.8794 8.93751 42.656V47.9998H28.625V42.656C28.625 41.8794 29.2546 41.2498 30.0313 41.2498H37.053C36.8111 34.643 31.4815 29.3136 24.8748 29.0718Z" fill="#0063F4"/>
<path d="M15.5 27.6139V29.0625C15.5 30.8747 16.9691 32.3437 18.7812 32.3437C20.5934 32.3437 22.0625 30.8747 22.0625 29.0625V27.6138C21.0274 27.9453 19.925 28.1249 18.7812 28.1249C17.6375 28.1249 16.5351 27.9453 15.5 27.6139Z" fill="#0063F4"/>
</g>
</g>
<defs>
<clipPath id="clip0_617_15">
<rect width="37" height="48" fill="white" transform="translate(0.5)"/>
</clipPath>
</defs>
</svg>
