<svg width="51" height="50" viewBox="0 0 51 50" fill="none" xmlns="http://www.w3.org/2000/svg">
<g clip-path="url(#clip0_617_7)">
<path opacity="0.6" d="M39.5289 28.1238C38.7907 28.8619 38.7946 30.0646 39.5348 30.8046L40.2066 31.4762C40.3316 31.6012 40.3316 31.8003 40.2066 31.9233C40.0816 32.0463 39.8844 32.0444 39.7594 31.9233L38.1911 30.3555C37.447 29.6116 36.2479 29.6097 35.5096 30.3496C34.7714 31.0896 34.7753 32.2904 35.5155 33.0304L37.0838 34.5982C37.2088 34.7232 37.2088 34.9223 37.0838 35.0453C36.9588 35.1683 36.7615 35.1664 36.6365 35.0453L34.1718 32.5813C33.4277 31.8374 32.2286 31.8355 31.4904 32.5755C30.7521 33.3154 30.756 34.5162 31.4962 35.2562L33.9609 37.7202C34.0859 37.8452 34.0859 38.0443 33.9609 38.1673C33.8359 38.2903 33.6387 38.2884 33.5137 38.1673L24.7701 29.4261C24.026 28.6822 22.8268 28.6803 22.0886 29.4203C21.3504 30.1603 21.3543 31.361 22.0945 32.101L32.6153 42.619C31.2365 42.4042 28.9163 42.3124 27.4906 43.7377C26.1528 45.0752 26.188 45.9987 26.6039 46.4185C27.7347 47.549 28.6077 45.7624 33.7597 48.2245C38.9118 50.6866 42.2241 50.4855 44.4896 48.2557L47.6105 45.1357C47.6261 45.1201 47.5948 45.1513 47.6105 45.1357C50.7821 41.9649 51.6922 37.6285 48.4913 34.4264C48.4854 34.4205 48.4815 34.4166 48.4756 34.4108L42.1987 28.1355C41.4702 27.3878 40.2672 27.3838 39.5289 28.1238Z" fill="#0063F4"/>
<path d="M48.3935 3.84266C37.4567 -2.30176 30.0607 -0.0525129 25.4984 3.50879C20.9362 -0.0544655 13.5402 -2.30371 2.60339 3.84266C1.31245 4.56898 0.5 5.94352 0.5 7.46645V38.9324C0.5 40.223 1.08395 41.4316 2.10342 42.2224C3.12484 43.0131 4.41577 43.2845 5.6657 42.9721C12.5403 41.2442 18.3524 41.2012 22.9771 42.8686C23.3521 42.1814 23.8736 41.4726 24.561 40.7853C24.602 40.7229 24.6645 40.6604 24.727 40.6194L22.5182 38.4111C20.3093 37.7863 17.9149 37.4954 15.3526 37.4954C12.0618 37.4954 8.4995 37.9738 4.66576 38.9324L4.64623 7.46449C12.3957 3.11244 18.5418 3.06949 23.4165 7.23606V24.7087C24.9165 24.6872 26.4164 25.2495 27.5823 26.3546V7.23801C32.457 3.07339 38.6031 3.11439 46.3311 7.46645L46.3526 26.3761L50.4969 30.5212V7.46645C50.4969 5.96695 49.6844 4.56898 48.3935 3.84266Z" fill="#0063F4"/>
</g>
<defs>
<clipPath id="clip0_617_7">
<rect width="50" height="50" fill="white" transform="translate(0.5)"/>
</clipPath>
</defs>
</svg>
