<svg width="60" height="51" viewBox="0 0 60 51" fill="none" xmlns="http://www.w3.org/2000/svg">
<g clip-path="url(#clip0_617_54)">
<mask id="mask0_617_54" style="mask-type:luminance" maskUnits="userSpaceOnUse" x="0" y="0" width="60" height="51">
<path d="M0 50.1538H60V7.62939e-06H0V50.1538Z" fill="white"/>
</mask>
<g mask="url(#mask0_617_54)">
<path d="M35.3846 50.0771H56.9231C58.6197 50.0771 60 48.6968 60 47.0002V27.0002C60 25.3036 58.6197 23.9233 56.9231 23.9233H44.1746C45.6165 16.8474 51.9374 11.6156 59.2308 11.6156C59.4348 11.6156 59.6304 11.5345 59.7747 11.3903C59.919 11.246 60 11.0504 60 10.8464V0.846383C60 0.642369 59.919 0.446713 59.7747 0.302456C59.6304 0.158196 59.4348 0.0771484 59.2308 0.0771484C44.3854 0.0771484 32.3077 12.1548 32.3077 27.0002V47.0002C32.3077 48.6968 33.688 50.0771 35.3846 50.0771ZM33.8462 27.0002C33.8462 13.2602 44.8186 2.03499 58.4615 1.62699V10.0945C54.6385 10.2674 50.9877 11.735 48.1088 14.2564C45.0638 16.9233 43.0718 20.5908 42.4994 24.5833C42.4837 24.6924 42.4916 24.8037 42.5226 24.9095C42.5537 25.0153 42.6071 25.1132 42.6794 25.1965C42.7516 25.2798 42.8409 25.3466 42.9412 25.3924C43.0415 25.4382 43.1505 25.4618 43.2608 25.4617H56.9231C57.7714 25.4617 58.4615 26.1519 58.4615 27.0002V47.0002C58.4615 47.8485 57.7714 48.5386 56.9231 48.5386H35.3846C34.5363 48.5386 33.8462 47.8485 33.8462 47.0002V27.0002ZM3.07692 50.0771H24.6154C26.312 50.0771 27.6923 48.6968 27.6923 47.0002V27.0002C27.6923 25.3036 26.312 23.9233 24.6154 23.9233H11.8663C13.3082 16.8474 19.6292 11.6156 26.9231 11.6156C27.1271 11.6156 27.3227 11.5345 27.467 11.3903C27.6113 11.246 27.6923 11.0504 27.6923 10.8464V0.846383C27.6923 0.642369 27.6113 0.446713 27.467 0.302456C27.3227 0.158196 27.1271 0.0771484 26.9231 0.0771484C12.0777 0.0771484 0 12.1548 0 27.0002V47.0002C0 48.6968 1.38015 50.0771 3.07692 50.0771ZM1.53846 27.0002C1.53846 13.2602 12.5109 2.03499 26.1538 1.62699V10.0945C22.3307 10.2674 18.6798 11.735 15.8008 14.2564C12.7557 16.9233 10.7635 20.5908 10.1911 24.5833C10.1754 24.6924 10.1834 24.8036 10.2145 24.9094C10.2456 25.0152 10.299 25.113 10.3712 25.1963C10.4434 25.2796 10.5327 25.3464 10.633 25.3922C10.7333 25.438 10.8422 25.4617 10.9525 25.4617H24.6154C25.4637 25.4617 26.1538 26.1519 26.1538 27.0002V47.0002C26.1538 47.8485 25.4637 48.5386 24.6154 48.5386H3.07692C2.22861 48.5386 1.53846 47.8485 1.53846 47.0002V27.0002Z" fill="#0063F4"/>
</g>
</g>
<defs>
<clipPath id="clip0_617_54">
<rect width="60" height="51" fill="white"/>
</clipPath>
</defs>
</svg>
